<svg xmlns="http://www.w3.org/2000/svg" width="60" height="60" viewBox="0 0 60 60">
  <g fill="none" fill-rule="evenodd">
    <rect width="60" height="60" fill="#FFF7F2" rx="20"/>
    <path fill="#FD6C63" fill-rule="nonzero" d="M12.5,0 C10.7853104,0 9.37467655,1.42204372 9.37467655,3.15060138 L9.37467655,22.0247092 L7.51143247,22.0247092 C7.51173902,20.1383288 7.51509044,9.8126513 7.51509044,8.81504626 C7.51509044,7.08648803 6.10445663,5.66444488 4.38976699,5.66444488 C2.67507691,5.66444488 1.26566249,7.08648803 1.26566249,8.81504626 C1.26566249,9.80963089 1.26230895,20.1355822 1.26200428,22.0247092 L0.94983773,22.0247092 C0.612102322,22.0198942 0.29795778,22.1987732 0.127696191,22.4928499 C-0.0425653971,22.7869267 -0.0425653971,23.15064 0.127696191,23.4447168 C0.29795778,23.7387936 0.612102322,23.9176726 0.94983773,23.9129523 L24.0501623,23.9129523 C24.3878977,23.9176726 24.7020422,23.7387936 24.8723038,23.4447168 C25.0425654,23.15064 25.0425654,22.7869267 24.8723038,22.4928499 C24.7020422,22.1987732 24.3878977,22.0198942 24.0501623,22.0247092 L23.7379957,22.0247092 L23.7379957,13.8464208 C23.7379957,12.1178626 22.3273619,10.6958194 20.6126723,10.6958194 C18.8979826,10.6958194 17.4885675,12.1178626 17.4885675,13.8464208 L17.4885675,22.0247092 L15.6253234,22.0247092 L15.6253234,3.15060138 C15.6253234,1.42204372 14.2146896,0 12.5,0 Z M12.5,1.88814829 C13.2027281,1.88814829 13.7523242,2.44218998 13.7523242,3.15060138 L13.7523242,22.0247092 L11.2476758,22.0247092 L11.2476758,3.15060138 C11.2476758,2.44218998 11.7972719,1.88814829 12.5,1.88814829 Z M4.38976699,7.55259318 C5.0924951,7.55259318 5.64209115,8.10663442 5.64209115,8.81504626 C5.64209115,9.8090292 5.63873973,20.1350372 5.63843318,22.0247092 L3.13500356,22.0247092 C3.13530824,20.1388752 3.13866178,9.81325047 3.13866178,8.81504626 C3.13866178,8.10663442 3.68703833,7.55259318 4.38976699,7.55259318 Z M20.6126723,12.5839677 C21.3154004,12.5839677 21.8649964,13.138009 21.8649964,13.8464208 L21.8649964,22.0247092 L19.3615668,22.0247092 L19.3615668,13.8464208 C19.3615668,13.138009 19.9099442,12.5839677 20.6126723,12.5839677 Z" transform="translate(18 18)"/>
  </g>
</svg>
