<svg xmlns="http://www.w3.org/2000/svg" width="60" height="60" viewBox="0 0 60 60">
  <g fill="none" fill-rule="evenodd">
    <rect width="60" height="60" fill="#E6FFF3" rx="20"/>
    <path fill="#1980A2" fill-rule="nonzero" d="M30.5,16.5 C23.8833752,16.5 18.5,21.8833753 18.5,28.5 C18.5,30.4651897 19.0176247,32.3020837 19.8570313,33.9398437 L18.55625,38.5968751 C18.2532784,39.6789169 19.3231557,40.7487379 20.4054687,40.4460937 L25.0660154,39.1453123 C26.7024416,39.9829591 28.5366506,40.5 30.5,40.5 C37.1166248,40.5 42.5,35.1166249 42.5,28.5 C42.5,21.8833753 37.1166248,16.5 30.5,16.5 Z M30.5,18.3 C36.1437752,18.3 40.7,22.8562249 40.7,28.5000001 C40.7,34.1437753 36.1437752,38.7000001 30.5,38.7000001 C28.6990496,38.7000001 27.0143606,38.2316881 25.5453128,37.4132815 C25.3382387,37.2978729 25.0939956,37.2688164 24.865625,37.3324219 L20.4335937,38.5687501 L21.6710937,34.1390623 C21.7350221,33.9103295 21.7059579,33.6656004 21.5902344,33.4582033 C20.7701913,31.9880857 20.3,30.3027109 20.3,28.5000001 C20.3,22.8562249 24.8562248,18.3 30.5,18.3 Z M25.4,25.5000001 C25.0754277,25.4954098 24.7735268,25.6659378 24.6099011,25.9462856 C24.4462753,26.2266334 24.4462753,26.5733667 24.6099011,26.8537145 C24.7735268,27.1340623 25.0754277,27.3045903 25.4,27.3000001 L35.6,27.3000001 C35.9245723,27.3045903 36.2264732,27.1340623 36.3900989,26.8537145 C36.5537247,26.5733667 36.5537247,26.2266334 36.3900989,25.9462856 C36.2264732,25.6659378 35.9245723,25.4954098 35.6,25.5000001 L25.4,25.5000001 Z M25.4,29.7000001 C25.0754277,29.6954098 24.7735268,29.8659378 24.6099011,30.1462856 C24.4462753,30.4266334 24.4462753,30.7733667 24.6099011,31.0537145 C24.7735268,31.3340623 25.0754277,31.5045903 25.4,31.5000001 L33.2,31.5000001 C33.5245723,31.5045903 33.8264732,31.3340623 33.9900989,31.0537145 C34.1537247,30.7733667 34.1537247,30.4266334 33.9900989,30.1462856 C33.8264732,29.8659378 33.5245723,29.6954098 33.2,29.7000001 L25.4,29.7000001 Z"/>
  </g>
</svg>
