<svg xmlns="http://www.w3.org/2000/svg" width="60" height="60" viewBox="0 0 60 60">
  <g fill="none" fill-rule="evenodd">
    <rect width="60" height="60" fill="#FAF7FF" rx="20"/>
    <path fill="#B59EFC" fill-rule="nonzero" d="M29.9860991,20.0001009 C29.4899871,20.007746 29.0939092,20.4046838 29.1010261,20.8872023 L29.1010261,22.525694 C28.6608614,22.6694061 28.2615619,22.8763044 27.9794647,23.1849618 C27.7314125,23.4563691 27.5652284,23.7674266 27.4549768,24.0935903 L23.1220983,24.0935903 L23.1068785,24.0935903 C22.6729159,24.0878115 22.2966346,24.3843189 22.212439,24.7984034 L18.1125361,35.6222407 C17.9731044,35.8671607 17.9626588,36.1621995 18.0844386,36.4158672 C18.2717385,38.6774079 20.0851929,41 23.1068785,41 C26.1300442,41 27.9435766,38.6750416 28.1293184,36.412451 C28.2506994,36.159099 28.2402573,35.8645813 28.1012208,35.619963 L24.3970253,25.8425293 L27.4549768,25.8425293 C27.5652284,26.168693 27.7314125,26.4797505 27.9794647,26.7511579 C28.4439566,27.2593838 29.1759529,27.5914682 30.0001482,27.5914682 C30.8243435,27.5914682 31.5563398,27.2593838 32.0208317,26.7511579 C32.2688839,26.4797505 32.435068,26.168693 32.5453196,25.8425293 L35.6032711,25.8425293 L31.8990755,35.6222407 C31.7596438,35.8671607 31.7491982,36.1621995 31.870978,36.4158672 C32.0582747,38.6774079 33.8717321,41 36.8934178,41 C39.9165835,41 41.7301159,38.6750416 41.9158577,36.412451 C42.0372387,36.159099 42.0267966,35.8645813 41.8877601,35.619963 L37.7866861,24.7949877 C37.7084762,24.4206076 37.3894626,24.1389242 36.9987836,24.0992837 C36.9707932,24.0961024 36.9426646,24.0942025 36.9144909,24.0935903 C36.9074668,24.0935103 36.9004419,24.0935103 36.8934178,24.0935903 L32.5453196,24.0935903 C32.435068,23.7674266 32.2688839,23.4563691 32.0208317,23.1849618 C31.7387345,22.8763044 31.339435,22.6694061 30.8992703,22.525694 L30.8992703,20.8872023 C30.9027581,20.6507349 30.8076312,20.4229739 30.6355816,20.2558562 C30.4635321,20.0887386 30.2292283,19.9965123 29.9860991,20.0001009 Z M29.97088,24.1049765 C29.9907768,24.1056193 30.0106902,24.1056193 30.0305871,24.1049765 C30.3708718,24.1139136 30.5479791,24.2053819 30.6768311,24.3463668 C30.8051125,24.4867262 30.8806333,24.7076545 30.8887338,24.937317 C30.8875749,24.9581716 30.8871844,24.97906 30.8875631,24.9999418 C30.8791234,25.2290062 30.8048151,25.4497188 30.6768311,25.5897528 C30.5419364,25.737379 30.3747818,25.8425293 30.0001482,25.8425293 C29.6255146,25.8425293 29.4583875,25.737379 29.3234653,25.5897528 C29.1951839,25.4493935 29.1196631,25.2284652 29.1115626,24.9988027 C29.1127215,24.977948 29.113112,24.9570597 29.1127332,24.9361778 C29.121173,24.7071135 29.1954812,24.4864009 29.3234653,24.3463668 C29.4525211,24.2051598 29.6294815,24.1136309 29.97088,24.1049765 Z M23.1068785,27.4992391 L26.0126351,35.1702036 L20.2011219,35.1702036 L23.1068785,27.4992391 Z M36.8934178,27.4992391 L39.7991744,35.1702036 L33.9876613,35.1702036 L36.8934178,27.4992391 Z M19.9681462,36.9191425 L26.2456108,36.9191425 C25.9047242,38.133706 24.8866794,39.2510611 23.1068785,39.2510611 C21.3270775,39.2510611 20.3090328,38.133706 19.9681462,36.9191425 Z M33.7546856,36.9191425 L40.0321501,36.9191425 C39.6912635,38.133706 38.6732187,39.2510611 36.8934178,39.2510611 C35.113617,39.2510611 34.0955722,38.133706 33.7546856,36.9191425 Z"/>
  </g>
</svg>
