<svg xmlns="http://www.w3.org/2000/svg" width="100" height="100" viewBox="0 0 100 100">
  <g fill="none" fill-rule="evenodd">
    <rect width="100" height="100" fill="#E6FFF3" rx="30"/>
    <path fill="#1980A2" fill-rule="nonzero" d="M17.5,0 C15.859375,0 14.4627131,0.673007467 13.5659178,1.69791662 C12.6691224,2.72282587 12.25,4.03703733 12.25,5.33333333 C12.25,6.62962933 12.6691224,7.94384089 13.5659178,8.96875022 C14.4627131,9.99365956 15.859375,10.6666667 17.5,10.6666667 C19.140625,10.6666667 20.5372869,9.99365956 21.4340822,8.96875022 C22.3308776,7.94384089 22.75,6.62962933 22.75,5.33333333 C22.75,4.03703733 22.3308776,2.72282587 21.4340822,1.69791662 C20.5372869,0.673007467 19.140625,0 17.5,0 Z M6.125,1.77777778 C4.77604199,1.77777778 3.59812985,2.33967422 2.84716793,3.19791662 C2.09620609,4.05615911 1.75,5.14814844 1.75,6.22222222 C1.75,7.296296 2.09620617,8.38828533 2.84716793,9.246528 C3.59812985,10.1047707 4.77604199,10.6666667 6.125,10.6666667 C7.47395775,10.6666667 8.6518705,10.1047707 9.40283225,9.246528 C10.153794,8.38828533 10.5,7.296296 10.5,6.22222222 C10.5,5.14814844 10.153794,4.05615911 9.40283225,3.19791662 C8.6518705,2.33967422 7.47395775,1.77777778 6.125,1.77777778 Z M28.875,1.77777778 C27.5260423,1.77777778 26.3481295,2.33967422 25.5971678,3.19791662 C24.846206,4.05615911 24.5,5.14814844 24.5,6.22222222 C24.5,7.296296 24.846206,8.38828533 25.5971678,9.246528 C26.3481295,10.1047707 27.5260423,10.6666667 28.875,10.6666667 C30.2239578,10.6666667 31.4018705,10.1047707 32.1528323,9.246528 C32.903794,8.38828533 33.25,7.296296 33.25,6.22222222 C33.25,5.14814844 32.903794,4.05615911 32.1528323,3.19791662 C31.4018705,2.33967422 30.2239578,1.77777778 28.875,1.77777778 Z M17.5,2.66666667 C18.4843741,2.66666667 19.056464,2.99365911 19.4721677,3.46875004 C19.8878724,3.94384089 20.125,4.62962933 20.125,5.33333333 C20.125,6.03703733 19.8878724,6.72282578 19.4721677,7.19791644 C19.056464,7.67300711 18.4843741,8 17.5,8 C16.5156259,8 15.943536,7.67300711 15.5278322,7.19791644 C15.1121276,6.72282578 14.875,6.03703733 14.875,5.33333333 C14.875,4.62962933 15.1121276,3.94384089 15.5278322,3.46875004 C15.943536,2.99365911 16.5156259,2.66666667 17.5,2.66666667 Z M6.125,4.44444444 C6.81770775,4.44444444 7.17104675,4.66032622 7.44091775,4.96875022 C7.71078875,5.27717422 7.875,5.74074044 7.875,6.22222222 C7.875,6.703704 7.71078875,7.16727022 7.44091775,7.47569422 C7.17104675,7.78411822 6.81770775,8 6.125,8 C5.43229225,8 5.0789529,7.78411822 4.80908208,7.47569422 C4.53921099,7.16727022 4.375,6.703704 4.375,6.22222222 C4.375,5.74074044 4.53921107,5.27717422 4.80908208,4.96875022 C5.0789529,4.66032622 5.43229225,4.44444444 6.125,4.44444444 Z M28.875,4.44444444 C29.5677078,4.44444444 29.9210468,4.66032622 30.1909178,4.96875022 C30.4607888,5.27717422 30.625,5.74074044 30.625,6.22222222 C30.625,6.703704 30.4607888,7.16727022 30.1909178,7.47569422 C29.9210468,7.78411822 29.5677078,8 28.875,8 C28.1822923,8 27.8289533,7.78411822 27.5590822,7.47569422 C27.2892112,7.16727022 27.125,6.703704 27.125,6.22222222 C27.125,5.74074044 27.2892112,5.27717422 27.5590822,4.96875022 C27.8289533,4.66032622 28.1822923,4.44444444 28.875,4.44444444 Z M3.0625,12.4444444 C1.37375,12.4444444 0,13.84 0,15.5555556 L0,21.3333333 C0,25.2533333 3.14125,28.4444444 7,28.4444444 C7.62125,28.4444444 8.22547863,28.3648613 8.80297863,28.2048613 C8.43547863,27.4048613 8.1638865,26.5505556 8.0151365,25.6527778 C7.6913865,25.7327778 7.35,25.7777778 7,25.7777778 C4.585,25.7777778 2.625,23.7866667 2.625,21.3333333 L2.625,15.5555556 C2.625,15.3066667 2.8175,15.1111111 3.0625,15.1111111 L7.90063488,15.1111111 C7.98813488,14.0977778 8.37354525,13.1822222 8.97729525,12.4444444 L3.0625,12.4444444 Z M12.6875,12.4444444 C11.0119144,12.4444444 9.625,13.8533733 9.625,15.5555556 L9.625,24 C9.625,28.4024169 13.1663709,32 17.5,32 C21.8336291,32 25.375,28.4024169 25.375,24 L25.375,15.5555556 C25.375,13.8533733 23.9880856,12.4444444 22.3125,12.4444444 L12.6875,12.4444444 Z M26.0227047,12.4444444 C26.6264547,13.1822222 27.0118651,14.0977778 27.0993651,15.1111111 L31.9375,15.1111111 C32.1825,15.1111111 32.375,15.3066667 32.375,15.5555556 L32.375,21.3333333 C32.375,23.7866667 30.415,25.7777778 28,25.7777778 C27.65,25.7777778 27.3086135,25.7327778 26.9848635,25.6527778 C26.8361135,26.5505556 26.5645214,27.4048613 26.1970214,28.2048613 C26.7745214,28.3648613 27.37875,28.4444444 28,28.4444444 C31.85875,28.4444444 35,25.2533333 35,21.3333333 L35,15.5555556 C35,13.84 33.62625,12.4444444 31.9375,12.4444444 L26.0227047,12.4444444 Z M12.6875,15.1111111 L22.3125,15.1111111 C22.5706644,15.1111111 22.75,15.2932933 22.75,15.5555556 L22.75,24 C22.75,26.9611387 20.4148709,29.3333333 17.5,29.3333333 C14.5851291,29.3333333 12.25,26.9611387 12.25,24 L12.25,15.5555556 C12.25,15.2932933 12.4293356,15.1111111 12.6875,15.1111111 Z" transform="translate(33 34)"/>
  </g>
</svg>
