<svg xmlns="http://www.w3.org/2000/svg" width="100" height="100" viewBox="0 0 100 100">
  <g fill="none" fill-rule="evenodd">
    <rect width="100" height="100" fill="#FFF7F2" rx="30"/>
    <path fill="#FD6C63" fill-rule="nonzero" d="M6.4375,0.75 C3.31205416,0.75 0.75,3.31205416 0.75,6.4375 L0.75,26.5625 C0.75,29.6879458 3.31205416,32.25 6.4375,32.25 L26.5625,32.25 C29.6879458,32.25 32.25,29.6879458 32.25,26.5625 L32.25,6.4375 C32.25,3.31205416 29.6879458,0.75 26.5625,0.75 L6.4375,0.75 Z M6.4375,3.375 L26.5625,3.375 C28.2688043,3.375 29.625,4.73119575 29.625,6.4375 L29.625,7.75 L3.375,7.75 L3.375,6.4375 C3.375,4.73119575 4.73119575,3.375 6.4375,3.375 Z M3.375,10.375 L29.625,10.375 L29.625,26.5625 C29.625,28.2688043 28.2688043,29.625 26.5625,29.625 L6.4375,29.625 C4.73119575,29.625 3.375,28.2688043 3.375,26.5625 L3.375,10.375 Z M23.098389,13.8613281 C22.7116501,13.8542235 22.3414657,14.0180552 22.0866703,14.3090822 L15.1362303,22.030273 L11.7404786,18.6345214 C11.411279,18.2916557 10.922444,18.1535449 10.4624967,18.2734524 C10.0025495,18.39336 9.64335999,18.7525495 9.52345243,19.2124967 C9.40354488,19.672444 9.5416557,20.161279 9.88452138,20.4904786 L14.2595214,24.8654786 C14.5140857,25.1201647 14.8621009,25.2590879 15.2220733,25.2497169 C15.5820458,25.240346 15.9223615,25.0835038 16.1633298,24.8159178 L24.0383298,16.0659178 C24.3901765,15.6861969 24.4859871,15.135146 24.2829577,14.6589494 C24.0799283,14.1827529 23.6159821,13.8703578 23.098389,13.8613281 Z" transform="translate(34 34)"/>
  </g>
</svg>
