<svg xmlns="http://www.w3.org/2000/svg" width="20" height="20" viewBox="0 0 20 20">
  <path fill="#B59EFC" d="M10,0 C6.741068,0 3.8486894,1.5773875 2.0214844,4 L2,4 L2,4.0273438 C0.7499527,5.6966931 0,7.7603852 0,10 C0,15.511003 4.4889971,20 10,20 C15.511003,20 20,15.511003 20,10 C20,4.4889971 15.511003,0 10,0 Z M13,2.5839844 C15.935098,3.7673596 18,6.6326468 18,10 C18,12.087831 17.200587,13.978318 15.898438,15.400391 C15.642583,14.590687 14.894567,14 14,14 L13,14 L13,11 C13,10.448 12.552,10 12,10 L7,10 L7,8 L8,8 C8.552,8 9,7.552 9,7 L9,5 L11,5 C12.105,5 13,4.105 13,3 L13,2.5839844 Z M2.2070312,8.207031 L4,10 L7,13 L7,14 C7,15.105 7.895,16 9,16 L9,17.931641 C5.0457719,17.441154 2,14.090654 2,10 C2,9.382188 2.0755245,8.784033 2.2070312,8.207031 Z"/>
</svg>
