<svg xmlns="http://www.w3.org/2000/svg" width="20" height="20" viewBox="0 0 20 20">
  <g fill="#B59EFC" fill-rule="evenodd" transform="translate(2 1)">
    <path d="M1.45455496,3 L14.5455048,3 C15.3490925,3 16,3.65090326 16,4.45453052 L16,17.5453649 C16,18.3490967 15.3490925,19 14.5455048,19 L1.45455496,19 C0.650907519,19 0,18.3490967 0,17.5453649 L0,4.45453052 C0,3.65090326 0.650907519,3 1.45455496,3 Z M14.2458214,7.363726 C14.4109012,7.363726 14.5446084,7.22994499 14.5446084,7.06494093 L14.5446084,4.75342016 C14.5446084,4.5884161 14.4109012,4.45463509 14.2458214,4.45463509 L1.75249044,4.45463509 C1.58747037,4.45463509 1.45370342,4.5884161 1.45370342,4.75342016 L1.45370342,7.06494093 C1.45370342,7.22994499 1.58747037,7.363726 1.75249044,7.363726 L14.2458214,7.363726 Z"/>
    <path d="M3.5 0C4.32843558 0 5 .568476285 5 1.26970903L5 2.73029097C5 3.43153906 4.32843558 4 3.5 4 2.67156442 4 2 3.43153906 2 2.73029097L2 1.26970903C2 .568476285 2.67156442 0 3.5 0zM12.5 0C13.3284799 0 14 .568476285 14 1.26970903L14 2.73029097C14 3.43153906 13.3284799 4 12.5 4 11.6715201 4 11 3.43153906 11 2.73029097L11 1.26970903C11 .568476285 11.6715201 0 12.5 0z"/>
  </g>
</svg>
