<svg xmlns="http://www.w3.org/2000/svg" width="20" height="20" viewBox="0 0 20 20">
  <path fill="#B59EFC" d="M15.5,20 L4.5,20 C2.0145,20 0,17.9855 0,15.5 L0,4.5 C0,2.0145 2.0145,0 4.5,0 L15.5,0 C17.9855,0 20,2.0145 20,4.5 L20,15.5 C20,17.9855 17.9855,20 15.5,20 Z M14.778,16.0055 C15.1795,16.0055 16.56,15.284 16.483,13.502 C16.4695,13.188 16.293,12.9 16.0215,12.726 C15.7125,12.528 15.233,12.2205 14.6075,11.8205 C14.037,11.456 13.3,11.43 12.705,11.756 L11.6635,12.488 C11.3815,12.686 11.02,12.7255 10.702,12.5925 C10.207,12.3855 9.4465,11.9845 8.7335,11.2715 C8.0205,10.5585 7.6195,9.798 7.4125,9.303 C7.2795,8.985 7.319,8.6235 7.517,8.3415 L8.249,7.3 C8.575,6.705 8.5495,5.968 8.1845,5.3975 C7.7845,4.772 7.477,4.2925 7.279,3.9835 C7.105,3.712 6.817,3.5355 6.503,3.522 C4.721,3.445 3.9995,4.8255 3.9995,5.227 C3.9995,5.505 3.619,8.8465 7.3885,12.616 C11.158,16.3855 14.5,16.0055 14.778,16.0055 Z"/>
</svg>
