<svg xmlns="http://www.w3.org/2000/svg" width="60" height="60" viewBox="0 0 60 60">
  <g fill="none" fill-rule="evenodd">
    <rect width="60" height="60" fill="#FFF7F2" rx="20"/>
    <path fill="#FD6C63" fill-rule="nonzero" d="M15.18,0 C11.1737743,0 7.62517932,1.99532467 5.4759375,5.03894556 C5.27186648,5.32793155 5.23748454,5.70384129 5.3857449,6.02505266 C5.53400526,6.34626404 5.84237975,6.56396895 6.19468981,6.59614816 C6.54699987,6.62832736 6.88971197,6.47009123 7.09371102,6.18105444 C8.88730854,3.6410748 11.8298657,1.98 15.18,1.98 C20.5138045,1.98 24.8314565,6.17153196 25.058086,11.448164 L23.469961,9.86003898 C23.283525,9.66804418 23.0273074,9.55969814 22.7596875,9.5596875 C22.3566618,9.55978577 21.9939153,9.80416661 21.8424308,10.1776397 C21.6909462,10.5511129 21.7809582,10.9791372 22.070039,11.259961 L25.040039,14.229961 C25.4266636,14.6164258 26.0533364,14.6164258 26.439961,14.229961 L26.669414,14.0005081 C26.7414153,13.9459175 26.805605,13.8817278 26.8601956,13.8097265 L29.409961,11.259961 C29.6685797,11.0116504 29.7727547,10.6429292 29.6823102,10.2959975 C29.5918656,9.94906591 29.3209341,9.67813439 28.9740025,9.58768984 C28.6270708,9.49724528 28.2583496,9.6014203 28.010039,9.86003898 L27.0084375,10.8616405 C26.4891403,4.78766838 21.3859213,0 15.18,0 Z M4.6058203,9.2399024 C4.34819591,9.24376706 4.10218704,9.34781213 3.92003905,9.53003898 L3.69445309,9.755625 C3.62027885,9.81142996 3.55432055,9.87738826 3.49851559,9.9515625 L0.950039046,12.500039 C0.691419379,12.7483494 0.587243599,13.117071 0.677688008,13.4640033 C0.768132416,13.8109355 1.03906438,14.0818675 1.38599662,14.172312 C1.73292886,14.2627564 2.10165055,14.1585807 2.34996095,13.899961 L3.3515625,12.8983595 C3.87085987,18.9723316 8.97407874,23.76 15.18,23.76 C19.1862257,23.76 22.7348207,21.7646748 24.8840625,18.7210544 C25.0881335,18.4320685 25.1225155,18.0561587 24.9742551,17.7349473 C24.8259947,17.413736 24.5176203,17.1960311 24.1653102,17.1638518 C23.8130001,17.1316726 23.470288,17.2899088 23.266289,17.5789456 C21.4726915,20.1189252 18.5301343,21.78 15.18,21.78 C9.84619548,21.78 5.52854326,17.588468 5.30191405,12.311836 L6.89003898,13.899961 C7.13834959,14.1585797 7.50707081,14.2627547 7.85400245,14.1723102 C8.20093409,14.0818656 8.47186561,13.8109341 8.56231016,13.4640025 C8.65275472,13.1170708 8.5485797,12.7483496 8.28996102,12.500039 L5.31996095,9.53003898 C5.13086399,9.34086467 4.87327215,9.23624709 4.6058203,9.2399024 Z" transform="translate(15 18)"/>
  </g>
</svg>
