<svg xmlns="http://www.w3.org/2000/svg" width="60" height="60" viewBox="0 0 60 60">
  <g fill="none" fill-rule="evenodd">
    <rect width="60" height="60" fill="#E6FFF3" rx="20"/>
    <path fill="#1980A2" fill-rule="nonzero" d="M3.15,0 C1.4133,0 0,1.346 0,3 L0,17 C0,18.654 1.4133,20 3.15,20 L9.8,20 L9.8,18 L3.15,18 C2.5711,18 2.1,17.5513333 2.1,17 L2.1,3 C2.1,2.44866667 2.5711,2 3.15,2 L10.85,2 C11.4289,2 11.9,2.44866667 11.9,3 L11.9,4.6875 C12.5153,4.31083333 13.2307,4.07292733 14,4.01692733 L14,3 C14,1.346 12.5867,0 10.85,0 L3.15,0 Z M14.15,5 C12.4227493,5 11,6.35499933 11,8 L11,22 C11,23.6450007 12.4227493,25 14.15,25 L21.85,25 C23.5772507,25 25,23.6450007 25,22 L25,8 C25,6.35499933 23.5772507,5 21.85,5 L14.15,5 Z M14.0714286,7 L21.9285714,7 C22.5332136,7 23,7.43566733 23,8 L23,22 C23,22.5643327 22.5332136,23 21.9285714,23 L14.0714286,23 C13.4667864,23 13,22.5643327 13,22 L13,8 C13,7.43566733 13.4667864,7 14.0714286,7 Z M6.00707089,14.0001004 C5.64898499,13.9950006 5.31591144,14.1844572 5.13539062,14.4959235 C4.95486979,14.8073897 4.95486979,15.1926103 5.13539062,15.5040765 C5.31591144,15.8155428 5.64898499,16.0049994 6.00707089,15.9998996 L7.99292911,15.9998996 C8.35101501,16.0049994 8.68408856,15.8155428 8.86460938,15.5040765 C9.04513021,15.1926103 9.04513021,14.8073897 8.86460938,14.4959235 C8.68408856,14.1844572 8.35101501,13.9950006 7.99292911,14.0001004 L6.00707089,14.0001004 Z M17.0070709,19.0001004 C16.648985,18.9950006 16.3159114,19.1844572 16.1353906,19.4959235 C15.9548698,19.8073897 15.9548698,20.1926103 16.1353906,20.5040765 C16.3159114,20.8155428 16.648985,21.0049994 17.0070709,20.9998996 L18.9929291,20.9998996 C19.351015,21.0049994 19.6840886,20.8155428 19.8646094,20.5040765 C20.0451302,20.1926103 20.0451302,19.8073897 19.8646094,19.4959235 C19.6840886,19.1844572 19.351015,18.9950006 18.9929291,19.0001004 L17.0070709,19.0001004 Z" transform="translate(17 18)"/>
  </g>
</svg>
