<svg xmlns="http://www.w3.org/2000/svg" width="60" height="60" viewBox="0 0 60 60">
  <g fill="none" fill-rule="evenodd">
    <rect width="60" height="60" fill="#FAF7FF" rx="20"/>
    <path fill="#B59EFC" fill-rule="nonzero" d="M12.5,0 C5.60754125,0 0,5.60754625 0,12.5 C0,19.3924537 5.60754125,25 12.5,25 C19.3924588,25 25,19.3924537 25,12.5 C25,5.60754625 19.3924588,0 12.5,0 Z M12.5,1.875 C18.3791344,1.875 23.125,6.62086937 23.125,12.5 C23.125,18.3791306 18.3791344,23.125 12.5,23.125 C6.62086562,23.125 1.875,18.3791306 1.875,12.5 C1.875,6.62086937 6.62086562,1.875 12.5,1.875 Z M12.1728512,4.36145786 C11.6555634,4.36965398 11.2425795,4.79520229 11.25,5.3125 L11.25,6.032715 C9.50486937,6.273965 8.125,7.72349187 8.125,9.53125 C8.125,11.5048887 9.74511125,13.125 11.71875,13.125 L12.96875,13.125 C14.10131,13.125 15,14.02369 15,15.15625 C15,16.28881 14.10131,17.1875 12.96875,17.1875 L11.5625,17.1875 C10.8264112,17.1875 10.2243387,16.6896562 10.0500487,16.0205075 C9.97322714,15.6881196 9.72192707,15.4236893 9.39387897,15.3300533 C9.06583087,15.2364173 8.71281149,15.3283544 8.47210982,15.5701104 C8.23140816,15.8118664 8.14101484,16.1652843 8.23608375,16.49292 C8.59525937,17.8718956 9.80396937,18.8736169 11.25,19.01001 L11.25,19.6875 C11.2452185,20.0255962 11.4228518,20.3400763 11.7148808,20.5105197 C12.0069098,20.6809632 12.3680902,20.6809632 12.6601192,20.5105197 C12.9521482,20.3400763 13.1297815,20.0255962 13.125,19.6875 L13.125,19.0307619 C15.1956287,18.9433013 16.875,17.2471494 16.875,15.15625 C16.875,13.01006 15.11494,11.25 12.96875,11.25 L11.71875,11.25 C10.7586387,11.25 10,10.4913612 10,9.53125 C10,8.57113875 10.7586387,7.8125 11.71875,7.8125 L12.0336912,7.8125 C12.1343352,7.82903232 12.2370023,7.82903232 12.3376462,7.8125 L12.8125,7.8125 C13.543215,7.8125 14.1424187,8.3042425 14.3212887,8.96606438 C14.4086767,9.28950456 14.6620007,9.54174172 14.9858136,9.62773836 C15.3096265,9.713735 15.6547198,9.62042255 15.8910698,9.38295912 C16.1274198,9.14549569 16.2191094,8.79996767 16.1315919,8.4765625 C15.7628675,7.11228187 14.5606162,6.12520812 13.125,5.98999 L13.125,5.3125 C13.1286366,5.05898834 13.0294493,4.81481073 12.850056,4.63564755 C12.6706627,4.45648438 12.426358,4.35761055 12.1728512,4.36145786 L12.1728512,4.36145786 Z" transform="translate(18 18)"/>
  </g>
</svg>
